<svg width="17" height="17" viewBox="0 0 17 17" fill="none" xmlns="http://www.w3.org/2000/svg">
<path d="M16.8387 15.6908L11.4283 10.2804C12.2679 9.19502 12.7221 7.86794 12.7221 6.47211C12.7221 4.80129 12.07 3.23462 10.8908 2.05338C9.71168 0.872135 8.14085 0.222137 6.47211 0.222137C4.80337 0.222137 3.23254 0.874218 2.05338 2.05338C0.872135 3.23254 0.222137 4.80129 0.222137 6.47211C0.222137 8.14085 0.874218 9.71168 2.05338 10.8908C3.23254 12.0721 4.80129 12.7221 6.47211 12.7221C7.86794 12.7221 9.19293 12.2679 10.2783 11.4304L15.6887 16.8387C15.7046 16.8546 15.7234 16.8672 15.7442 16.8758C15.7649 16.8844 15.7871 16.8888 15.8096 16.8888C15.832 16.8888 15.8542 16.8844 15.875 16.8758C15.8957 16.8672 15.9145 16.8546 15.9304 16.8387L16.8387 15.9325C16.8546 15.9166 16.8672 15.8978 16.8758 15.8771C16.8844 15.8563 16.8888 15.8341 16.8888 15.8117C16.8888 15.7892 16.8844 15.767 16.8758 15.7463C16.8672 15.7255 16.8546 15.7067 16.8387 15.6908ZM9.7721 9.7721C8.88877 10.6533 7.71794 11.1388 6.47211 11.1388C5.22628 11.1388 4.05545 10.6533 3.17213 9.7721C2.29088 8.88877 1.80546 7.71794 1.80546 6.47211C1.80546 5.22628 2.29088 4.05337 3.17213 3.17213C4.05545 2.29088 5.22628 1.80546 6.47211 1.80546C7.71794 1.80546 8.89085 2.2888 9.7721 3.17213C10.6533 4.05545 11.1388 5.22628 11.1388 6.47211C11.1388 7.71794 10.6533 8.89085 9.7721 9.7721Z" fill="white"/>
</svg>
