<svg width="15" height="24" viewBox="0 0 15 24" fill="none" xmlns="http://www.w3.org/2000/svg">
<path d="M1.29411 2.04488V5.00662L0.697113 5.59837H4.87424V1.45312L4.27761 2.04488H1.29411Z" fill="black"/>
<path d="M11.6047 5.59823C11.5965 5.55286 11.5849 5.50823 11.58 5.46286C11.3339 5.50018 11.0824 5.47821 10.8465 5.39877C10.6106 5.31932 10.397 5.18471 10.2236 5.00611C10.0162 4.79304 9.87335 4.52561 9.81157 4.23474C9.74978 3.94388 9.7716 3.64147 9.8745 3.36248C9.79813 3.35437 9.72244 3.34083 9.648 3.32198C9.43058 3.26796 9.22726 3.16796 9.05175 3.02873C8.85336 2.8736 8.6958 2.67241 8.59275 2.44261C8.53504 2.30827 8.49641 2.16652 8.478 2.02148L8.45437 2.04473H5.4705V5.00611L4.87387 5.59823H11.6047Z" fill="black"/>
<path d="M1.29411 6.19113V9.15213L0.697113 9.74463H4.87424V5.59863L4.27761 6.19113H1.29411Z" fill="black"/>
<path d="M5.47089 6.19113V9.15213L4.87427 9.74463H9.05177V5.59863L8.45477 6.19113H5.47089Z" fill="black"/>
<path d="M14.2147 12.0071C14.123 11.941 14.0263 11.882 13.9256 11.8305V6.8325H13.2285C13.0262 6.8454 12.8234 6.81852 12.6315 6.75338C12.3225 6.65086 12.0534 6.45415 11.862 6.19088H9.648V9.15188L9.05175 9.74438H13.2285L12.6315 10.3365H9.648V11.4701C9.4515 11.4904 9.25238 11.5133 9.05175 11.5387V9.74438L8.45475 10.3365H5.47088V12.1823C5.26988 12.2273 5.07075 12.273 4.87425 12.3191V9.74438L4.27763 10.3365H1.29413V13.2712C1.06988 13.3376 0.868875 13.398 0.697125 13.4509V1.45312H8.44987V0.75H0V23.25H13.9252V16.2334C14.6662 14.5193 15.765 13.1535 14.2147 12.0071ZM13.6616 15.048C13.1186 16.167 12.4069 17.6336 12.7575 19.3444C10.7546 19.2836 9.94763 18.2081 8.93287 16.8563C7.93462 15.5269 6.753 13.953 4.2255 13.2488C6.47512 12.6859 9.2475 12.1249 11.3595 12.1249C12.8149 12.1249 13.4794 12.3908 13.7805 12.6135C14.4904 13.1381 14.3918 13.5431 13.6616 15.048ZM0.697125 22.5469V13.6905C0.822375 13.6972 0.93975 13.7085 1.06012 13.7186C1.78275 13.8176 3.4515 14.1251 4.81913 14.9621C5.475 15.423 5.991 15.9712 6.43762 16.5521C6.64413 16.876 6.86678 17.1893 7.10475 17.4907C8.37 19.3894 9.366 21.2843 12.5306 21.2843C12.2501 20.9422 12.0664 20.5061 11.9501 20.0171C12.2524 20.0685 12.579 20.097 12.9386 20.097C13.032 20.097 13.1302 20.0929 13.2277 20.0891V22.5469H0.697125Z" fill="black"/>
</svg>
