<svg width="16" height="24" viewBox="0 0 16 24" fill="none" xmlns="http://www.w3.org/2000/svg">
<path d="M2.00392 2.04488V5.00663L1.40692 5.59838H5.58405V1.45312L4.98742 2.04488H2.00392Z" fill="white"/>
<path d="M12.3146 5.59827C12.3063 5.55289 12.2947 5.50827 12.2898 5.46289C12.0437 5.50021 11.7922 5.47824 11.5563 5.3988C11.3204 5.31936 11.1068 5.18474 10.9334 5.00614C10.726 4.79307 10.5832 4.52564 10.5214 4.23477C10.4596 3.94391 10.4814 3.6415 10.5843 3.36252C10.5079 3.3544 10.4323 3.34086 10.3578 3.32202C10.1404 3.26799 9.93707 3.16799 9.76156 3.02876C9.56317 2.87363 9.40561 2.67244 9.30256 2.44264C9.24485 2.30831 9.20623 2.16656 9.18781 2.02151L9.16418 2.04476H6.1803V5.00614L5.58368 5.59827H12.3146Z" fill="white"/>
<path d="M2.00392 6.19104V9.15204L1.40692 9.74454H5.58405V5.59854L4.98742 6.19104H2.00392Z" fill="white"/>
<path d="M6.1807 6.19104V9.15204L5.58408 9.74454H9.76158V5.59854L9.16458 6.19104H6.1807Z" fill="white"/>
<path d="M14.9246 12.0071C14.8328 11.941 14.7361 11.882 14.6354 11.8305V6.8325H13.9383C13.736 6.8454 13.5332 6.81852 13.3413 6.75338C13.0323 6.65086 12.7633 6.45415 12.5718 6.19088H10.3578V9.15188L9.76156 9.74438H13.9383L13.3413 10.3365H10.3578V11.4701C10.1613 11.4904 9.96218 11.5133 9.76156 11.5387V9.74438L9.16456 10.3365H6.18068V12.1823C5.97968 12.2273 5.78056 12.273 5.58406 12.3191V9.74438L4.98743 10.3365H2.00393V13.2712C1.77968 13.3376 1.57868 13.398 1.40693 13.4509V1.45312H9.15968V0.75H0.709808V23.25H14.6351V16.2334C15.3761 14.5193 16.4748 13.1535 14.9246 12.0071ZM14.3714 15.048C13.8284 16.167 13.1167 17.6336 13.4673 19.3444C11.4644 19.2836 10.6574 18.2081 9.64268 16.8563C8.64443 15.5269 7.46281 13.953 4.93531 13.2488C7.18493 12.6859 9.95731 12.1249 12.0693 12.1249C13.5247 12.1249 14.1892 12.3908 14.4903 12.6135C15.2002 13.1381 15.1016 13.5431 14.3714 15.048ZM1.40693 22.5469V13.6905C1.53218 13.6972 1.64956 13.7085 1.76993 13.7186C2.49256 13.8176 4.16131 14.1251 5.52893 14.9621C6.18481 15.423 6.70081 15.9712 7.14743 16.5521C7.35394 16.876 7.57659 17.1893 7.81456 17.4907C9.07981 19.3894 10.0758 21.2843 13.2404 21.2843C12.9599 20.9422 12.7762 20.5061 12.6599 20.0171C12.9622 20.0685 13.2888 20.097 13.6484 20.097C13.7418 20.097 13.8401 20.0929 13.9376 20.0891V22.5469H1.40693Z" fill="white"/>
</svg>
