<svg width="22" height="22" viewBox="0 0 22 22" fill="none" xmlns="http://www.w3.org/2000/svg">
<path fill-rule="evenodd" clip-rule="evenodd" d="M3.50203 3.72409C2.00117 5.44022 1.10079 7.59908 0.937454 9.87325H2.3057C2.47214 7.96547 3.23706 6.15907 4.49123 4.71207L3.50203 3.72409V3.72409Z" fill="white"/>
<path fill-rule="evenodd" clip-rule="evenodd" d="M5.47903 5.69821C4.48169 6.87996 3.86303 8.33458 3.70355 9.87282L9.6514 9.87141L5.47903 5.69821V5.69821Z" fill="white"/>
<path fill-rule="evenodd" clip-rule="evenodd" d="M10.6969 0.145538C8.42653 0.300883 6.26843 1.1914 4.54898 2.68244L5.53958 3.67324C6.99589 2.44689 8.79915 1.70672 10.6969 1.55634V0.145538V0.145538Z" fill="white"/>
<path fill-rule="evenodd" clip-rule="evenodd" d="M10.697 2.94873C9.16866 3.09502 7.7181 3.69145 6.52881 4.66255L10.697 8.83152V2.94873Z" fill="white"/>
<path fill-rule="evenodd" clip-rule="evenodd" d="M3.69801 11.4067C3.83513 12.9459 4.43828 14.4066 5.42699 15.594L9.6515 11.4081L3.69801 11.4067V11.4067Z" fill="white"/>
<path fill-rule="evenodd" clip-rule="evenodd" d="M0.934677 11.4067C1.08335 13.672 1.97487 15.8249 3.47107 17.5319L4.43913 16.5736C3.19246 15.124 2.44239 13.3134 2.29869 11.4067H0.934677Z" fill="white"/>
<path fill-rule="evenodd" clip-rule="evenodd" d="M6.46687 16.6212C7.66676 17.6226 9.14133 18.2377 10.697 18.3858V12.3916L6.46687 16.6212V16.6212Z" fill="white"/>
<path fill-rule="evenodd" clip-rule="evenodd" d="M4.51234 18.5761C6.23681 20.087 8.40966 20.9897 10.6969 21.1454V19.7783C8.773 19.6238 6.94739 18.864 5.48181 17.6078L4.51234 18.5761V18.5761Z" fill="white"/>
<path fill-rule="evenodd" clip-rule="evenodd" d="M19.3969 17.533C20.8924 15.8255 21.7843 13.6729 21.9347 11.4078H20.5932C20.4485 13.3194 19.6949 15.1343 18.4429 16.5859L19.3969 17.533Z" fill="white"/>
<path fill-rule="evenodd" clip-rule="evenodd" d="M13.215 11.4078L17.455 15.6078C18.4497 14.4181 19.0565 12.9525 19.1939 11.4078H13.215Z" fill="white"/>
<path fill-rule="evenodd" clip-rule="evenodd" d="M19.1868 9.87192C19.0271 8.32879 18.4054 6.86984 17.4029 5.68604L13.2164 9.87192H19.1868Z" fill="white"/>
<path fill-rule="evenodd" clip-rule="evenodd" d="M21.9304 9.87184C21.7669 7.59811 20.8666 5.43973 19.3658 3.72409L18.3893 4.7008C19.6504 6.14839 20.4196 7.95901 20.5861 9.87184H21.9304Z" fill="white"/>
<path fill-rule="evenodd" clip-rule="evenodd" d="M12.1723 21.1455C14.458 20.989 16.6294 20.0875 18.3541 18.579L17.3959 17.6206C15.9262 18.8737 14.0977 19.6295 12.1723 19.7798V21.1455V21.1455Z" fill="white"/>
<path fill-rule="evenodd" clip-rule="evenodd" d="M12.1723 18.3885C13.7294 18.2442 15.2067 17.6331 16.4109 16.6352L12.1723 12.3929V18.3885V18.3885Z" fill="white"/>
</svg>
