<svg width="21" height="23" viewBox="0 0 21 23" fill="none" xmlns="http://www.w3.org/2000/svg">
<path d="M19.7989 2.86488C18.9904 0.874383 16.6936 -0.0953678 14.6678 0.698508C13.1228 1.30488 12.1846 2.76251 12.1838 4.30263H8.72631L7.44118 3.04001C6.48606 2.10101 4.93618 2.10063 3.98068 3.04001L0.580933 6.37976L1.09993 6.88976L4.49968 3.54963C5.16868 2.89226 6.25318 2.89263 6.92218 3.54963L7.68831 4.30263H6.81793C8.57218 8.37963 3.23893 15.7638 9.44331 17.0046C9.43918 17.0065 9.43431 17.0084 9.43806 17.0099C11.3344 17.6669 11.2332 19.234 10.6141 20.7093C9.95818 22.2719 8.38731 22.5569 8.37268 22.5659C8.32618 22.5929 8.29881 22.6784 8.30556 22.7673C8.31418 22.8558 8.35431 22.9214 8.40268 22.9214H14.6299C14.6779 22.9214 14.7188 22.8558 14.7263 22.7673C14.7342 22.6784 14.7053 22.5929 14.6592 22.5659C14.6442 22.5569 13.0744 22.2719 12.4182 20.7093C11.7991 19.2336 11.6982 17.6669 13.5938 17.0099C13.5983 17.0084 13.5927 17.0065 13.5886 17.0046C18.1036 16.102 16.5102 11.9463 15.9829 8.17864C16.5332 8.20003 17.082 8.10734 17.5947 7.90638C19.6201 7.11288 20.6067 4.85538 19.7989 2.86488V2.86488ZM11.5163 16.5213C3.67506 16.5213 9.18531 8.65113 7.57543 4.64988H8.04193L11.1612 7.71438C10.4097 7.48863 9.61993 7.30451 8.75706 7.30451C8.62843 7.30451 8.49906 7.30863 8.36668 7.31726C8.33931 8.73701 7.94106 10.3521 7.79931 11.797C7.57656 14.0744 7.99356 15.9299 11.5159 15.9299C14.4484 15.9299 15.2281 14.6433 15.2791 12.8988C15.3169 11.5885 14.9442 10.0199 14.7612 8.54163C14.7083 8.54388 14.6562 8.54464 14.6033 8.54464C13.9632 8.54464 13.3347 8.39539 12.6942 8.20151L9.07881 4.64951H12.1981C12.2318 5.01476 12.3169 5.38113 12.4624 5.73926C12.9616 6.96963 14.0299 7.80851 15.2513 8.08376C15.7377 12.0115 17.4518 16.5213 11.5163 16.5213V16.5213ZM14.4342 10.9308L14.5317 10.8351C14.6142 11.38 14.6817 11.9046 14.7027 12.3933C14.6701 12.394 14.6367 12.3948 14.6029 12.3948C13.8139 12.3948 13.0024 12.1296 12.1433 11.8488C11.1507 11.5248 10.0253 11.1569 8.75781 11.1569C8.65581 11.1569 8.55418 11.1591 8.45181 11.164C8.50093 10.8126 8.55943 10.4526 8.61981 10.0788C8.73831 9.34639 8.86018 8.59414 8.91306 7.86889C9.93456 7.89776 10.8732 8.20489 11.7814 8.50226C11.8718 8.53189 11.9611 8.55964 12.0511 8.58851L14.4342 10.9308V10.9308ZM13.4929 8.98564C13.7457 9.03626 13.9999 9.07751 14.2591 9.09551C14.2966 9.35051 14.3374 9.60326 14.3779 9.85526L13.4929 8.98564ZM14.5212 7.30526C14.6232 7.29213 14.6914 7.20363 14.7664 7.19988C14.7871 7.19876 14.9502 6.87138 15.1467 6.45326C15.1456 6.54063 15.1444 6.62801 15.1459 6.71688C15.0113 7.03863 14.9093 7.29663 14.8947 7.37763C14.8823 7.45188 14.9843 7.49501 15.0083 7.56664C15.0192 7.60001 15.0931 7.62701 15.2037 7.64876L15.2224 7.82576C14.1136 7.54864 13.1494 6.77538 12.6927 5.65076C12.5634 5.33065 12.4811 4.99354 12.4482 4.64988H12.6691C12.6799 4.99451 12.7103 5.27463 12.7583 5.31063C12.8393 5.37138 12.9526 5.35601 13.0077 5.40476C13.0369 5.42988 14.3243 4.96413 15.0994 4.64988H15.2926C14.5688 4.92626 13.2481 5.43813 13.0767 5.55438C13.0141 5.59826 13.0549 5.69913 13.0201 5.76551C12.9256 5.94251 14.3558 7.32513 14.5212 7.30526V7.30526ZM17.5021 7.68063C17.0084 7.87382 16.4794 7.95985 15.9499 7.93301C15.9406 7.85876 15.9319 7.78451 15.9233 7.71063C16.4959 7.72713 17.1349 7.69451 17.1912 7.62401C17.2549 7.54489 17.2384 7.43576 17.2887 7.38176C17.3273 7.34051 16.2912 4.70388 16.2278 4.79576C16.1734 4.87413 16.0958 4.82501 16.0452 4.79013C16.0928 4.62363 16.1468 4.46013 16.2143 4.30263H15.6297C15.6312 4.24376 15.6938 4.18263 15.7013 4.15901C15.7013 4.15901 13.2961 3.12926 13.0107 3.08126C12.9346 3.06776 12.8903 3.16713 12.8168 3.18963C12.7152 3.22188 12.6679 3.77088 12.6642 4.30263H12.4309C12.4317 2.85813 13.3111 1.49238 14.7593 0.924258C16.6579 0.179882 18.8123 1.08851 19.5694 2.95488C20.3266 4.82051 19.4014 6.93701 17.5021 7.68063" fill="white"/>
<path d="M17.2759 1.04176C17.2133 0.851631 15.1939 0.855756 15.0919 0.983631C15.0293 1.06276 15.0454 1.17263 14.9952 1.22626C14.9566 1.26788 15.9938 3.90451 16.0564 3.81263C16.1281 3.70838 16.2436 3.83138 16.2781 3.84188C16.2781 3.84188 17.3386 1.50713 17.3884 1.22963C17.4016 1.15613 17.2996 1.11263 17.2759 1.04176" fill="white"/>
<path d="M19.5135 3.27231C19.4322 3.21081 19.3197 3.22619 19.263 3.17781C19.221 3.14031 16.5057 4.14718 16.5998 4.20756C16.7074 4.27768 16.5803 4.38943 16.5687 4.42318C16.5687 4.42318 18.975 5.45256 19.2597 5.50168C19.3365 5.51443 19.3808 5.41506 19.4539 5.39181C19.6493 5.33143 19.6455 3.37056 19.5135 3.27231Z" fill="white"/>
<path d="M14.6536 1.28176C14.4713 1.19026 13.0459 2.57889 13.0669 2.73939C13.0804 2.83876 13.1704 2.90514 13.1753 2.97789C13.1791 3.03376 15.8311 4.18651 15.8089 4.07814C15.7842 3.95476 15.9556 3.96376 15.9878 3.94726C15.9878 3.94726 15.0368 1.56751 14.8707 1.33726C14.8253 1.27539 14.7214 1.31514 14.6536 1.28176" fill="white"/>
<path d="M16.5432 4.56858C16.5683 4.69196 16.3966 4.68408 16.3643 4.70058C16.3643 4.70058 17.3157 7.07921 17.4822 7.31021C17.5264 7.37096 17.6303 7.33159 17.6978 7.36496C17.8804 7.45609 19.3054 6.06708 19.2844 5.90696C19.2721 5.80796 19.1802 5.74196 19.1765 5.66846C19.1735 5.61333 16.5214 4.46096 16.5432 4.56858" fill="white"/>
<path d="M16.386 3.92575C16.5135 3.90063 16.5053 4.0675 16.5218 4.099C16.5218 4.099 18.9716 3.17575 19.2098 3.01375C19.2724 2.971 19.2315 2.869 19.266 2.803C19.3601 2.626 17.9299 1.243 17.7649 1.26288C17.6629 1.27563 17.5943 1.3645 17.5193 1.369C17.463 1.372 16.2761 3.94675 16.386 3.92575Z" fill="white"/>
</svg>
