<svg width="20" height="24" viewBox="0 0 20 24" fill="none" xmlns="http://www.w3.org/2000/svg">
<path d="M19.468 3.19353C18.6595 1.20303 16.3626 0.233276 14.3369 1.02715C12.7919 1.63353 11.8536 3.09115 11.8529 4.63128H8.39538L7.11025 3.36865C6.15513 2.42965 4.60525 2.42928 3.64975 3.36865L0.25 6.7084L0.769 7.2184L4.16875 3.87828C4.83775 3.2209 5.92225 3.22128 6.59125 3.87828L7.35737 4.63128H6.487C8.24125 8.70828 2.908 16.0924 9.11238 17.3333C9.10825 17.3352 9.10337 17.337 9.10712 17.3385C11.0035 17.9955 10.9023 19.5627 10.2831 21.0379C9.62725 22.6005 8.05638 22.8855 8.04175 22.8945C7.99525 22.9215 7.96788 23.007 7.97463 23.0959C7.98325 23.1844 8.02338 23.25 8.07175 23.25H14.299C14.347 23.25 14.3879 23.1844 14.3954 23.0959C14.4033 23.007 14.3744 22.9215 14.3282 22.8945C14.3132 22.8855 12.7435 22.6005 12.0873 21.0379C11.4681 19.5623 11.3673 17.9955 13.2629 17.3385C13.2674 17.337 13.2618 17.3352 13.2576 17.3333C17.7726 16.4307 16.1792 12.2749 15.652 8.50728C16.2023 8.52867 16.751 8.43598 17.2638 8.23503C19.2891 7.44153 20.2758 5.18403 19.468 3.19353ZM11.1854 16.8499C3.34412 16.8499 8.85437 8.97978 7.2445 4.97853H7.711L10.8302 8.04303C10.0788 7.81728 9.289 7.63315 8.42612 7.63315C8.2975 7.63315 8.16812 7.63728 8.03575 7.6459C8.00837 9.06565 7.61013 10.6808 7.46838 12.1257C7.24563 14.403 7.66263 16.2585 11.185 16.2585C14.1175 16.2585 14.8971 14.9719 14.9481 13.2274C14.986 11.9172 14.6132 10.3485 14.4303 8.87028C14.3774 8.87253 14.3253 8.87328 14.2724 8.87328C13.6323 8.87328 13.0037 8.72403 12.3632 8.53015L8.74788 4.97815H11.8671C11.9009 5.3434 11.986 5.70978 12.1315 6.0679C12.6306 7.29828 13.699 8.13715 14.9204 8.4124C15.4067 12.3402 17.1209 16.8499 11.1854 16.8499ZM14.1033 11.2594L14.2008 11.1638C14.2832 11.7087 14.3507 12.2333 14.3717 12.7219C14.3391 12.7227 14.3057 12.7234 14.272 12.7234C13.483 12.7234 12.6715 12.4583 11.8124 12.1774C10.8197 11.8534 9.69438 11.4855 8.42688 11.4855C8.32487 11.4855 8.22325 11.4878 8.12088 11.4927C8.17 11.1413 8.2285 10.7813 8.28888 10.4074C8.40738 9.67503 8.52925 8.92278 8.58212 8.19753C9.60363 8.2264 10.5422 8.53353 11.4505 8.8309C11.5409 8.86053 11.6301 8.88828 11.7201 8.91715L14.1033 11.2594ZM13.162 9.31428C13.4148 9.3649 13.669 9.40615 13.9281 9.42415C13.9656 9.67915 14.0065 9.9319 14.047 10.1839L13.162 9.31428ZM14.1903 7.6339C14.2922 7.62078 14.3605 7.53228 14.4355 7.52853C14.4561 7.5274 14.6192 7.20003 14.8158 6.7819C14.8146 6.86928 14.8135 6.95665 14.815 7.04553C14.6804 7.36728 14.5784 7.62528 14.5637 7.70628C14.5514 7.78053 14.6534 7.82365 14.6774 7.89528C14.6882 7.92865 14.7621 7.95565 14.8727 7.9774L14.8915 8.1544C13.7826 7.87728 12.8185 7.10403 12.3617 5.9794C12.2325 5.65929 12.1501 5.32219 12.1173 4.97853H12.3381C12.349 5.32315 12.3794 5.60328 12.4274 5.63928C12.5084 5.70003 12.6216 5.68465 12.6768 5.7334C12.706 5.75853 13.9934 5.29278 14.7685 4.97853H14.9616C14.2379 5.2549 12.9171 5.76678 12.7457 5.88303C12.6831 5.9269 12.724 6.02778 12.6891 6.09415C12.5946 6.27115 14.0249 7.65378 14.1903 7.6339ZM17.1711 8.00928C16.6775 8.20246 16.1484 8.28849 15.619 8.26165C15.6096 8.1874 15.601 8.11315 15.5924 8.03928C16.165 8.05578 16.804 8.02315 16.8602 7.95265C16.924 7.87353 16.9075 7.7644 16.9578 7.7104C16.9964 7.66915 15.9602 5.03253 15.8969 5.1244C15.8425 5.20278 15.7649 5.15365 15.7142 5.11878C15.7619 4.95228 15.8159 4.78878 15.8834 4.63128H15.2987C15.3003 4.5724 15.3629 4.51128 15.3704 4.48765C15.3704 4.48765 12.9651 3.4579 12.6798 3.4099C12.6036 3.3964 12.5594 3.49578 12.4859 3.51828C12.3843 3.55053 12.337 4.09953 12.3333 4.63128H12.1C12.1007 3.18678 12.9801 1.82103 14.4284 1.2529C16.327 0.508526 18.4814 1.41715 19.2385 3.28353C19.9956 5.14915 19.0705 7.26565 17.1711 8.00928Z" fill="black"/>
<path d="M16.945 1.37037C16.8824 1.18024 14.863 1.18437 14.761 1.31224C14.6984 1.39137 14.7145 1.50124 14.6643 1.55487C14.6256 1.59649 15.6629 4.23312 15.7255 4.14124C15.7971 4.03699 15.9126 4.15999 15.9471 4.17049C15.9471 4.17049 17.0076 1.83574 17.0575 1.55824C17.0706 1.48474 16.9686 1.44124 16.945 1.37037Z" fill="black"/>
<path d="M19.1826 3.60089C19.1013 3.53939 18.9888 3.55477 18.9321 3.50639C18.8901 3.46889 16.1748 4.47577 16.2689 4.53614C16.3765 4.60627 16.2494 4.71802 16.2378 4.75177C16.2378 4.75177 18.6441 5.78114 18.9288 5.83027C19.0056 5.84302 19.0499 5.74364 19.123 5.72039C19.3184 5.66002 19.3146 3.69914 19.1826 3.60089Z" fill="black"/>
<path d="M14.3226 1.61028C14.1404 1.51878 12.715 2.90741 12.736 3.06791C12.7495 3.16728 12.8395 3.23366 12.8444 3.30641C12.8481 3.36228 15.5001 4.51503 15.478 4.40666C15.4533 4.28328 15.6246 4.29228 15.6569 4.27578C15.6569 4.27578 14.7059 1.89603 14.5398 1.66578C14.4944 1.60391 14.3905 1.64366 14.3226 1.61028Z" fill="black"/>
<path d="M16.2123 4.89723C16.2374 5.0206 16.0656 5.01273 16.0334 5.02923C16.0334 5.02923 16.9848 7.40785 17.1513 7.63885C17.1955 7.6996 17.2994 7.66023 17.3669 7.6936C17.5495 7.78473 18.9745 6.39573 18.9535 6.2356C18.9411 6.1366 18.8493 6.0706 18.8455 5.9971C18.8425 5.94198 16.1905 4.7896 16.2123 4.89723Z" fill="black"/>
<path d="M16.0551 4.2544C16.1826 4.22927 16.1744 4.39615 16.1909 4.42765C16.1909 4.42765 18.6407 3.5044 18.8789 3.3424C18.9415 3.29965 18.9006 3.19765 18.9351 3.13165C19.0292 2.95465 17.599 1.57165 17.434 1.59152C17.332 1.60427 17.2634 1.69315 17.1884 1.69765C17.1321 1.70065 15.9452 4.2754 16.0551 4.2544Z" fill="black"/>
</svg>
