<svg width="22" height="19" viewBox="0 0 22 19" fill="none" xmlns="http://www.w3.org/2000/svg">
<path d="M11.4207 0.522249C11.2988 0.42714 11.1485 0.375488 10.9938 0.375488C10.8391 0.375488 10.6889 0.42714 10.5669 0.522249L0.6875 8.22569L1.54206 9.30644L2.75 8.36456V16.8751C2.75073 17.2396 2.89583 17.5889 3.15353 17.8466C3.41124 18.1043 3.76055 18.2494 4.125 18.2501H17.875C18.2394 18.2494 18.5888 18.1043 18.8465 17.8466C19.1042 17.5889 19.2493 17.2396 19.25 16.8751V8.37075L20.4579 9.31262L21.3125 8.23187L11.4207 0.522249ZM12.375 16.8751H9.625V11.3751H12.375V16.8751ZM13.75 16.8751V11.3751C13.7496 11.0106 13.6047 10.661 13.3469 10.4033C13.0891 10.1455 12.7396 10.0005 12.375 10.0001H9.625C9.26044 10.0005 8.91091 10.1455 8.65313 10.4033C8.39535 10.661 8.25036 11.0106 8.25 11.3751V16.8751H4.125V7.29275L11 1.93712L17.875 7.29962V16.8751H13.75Z" fill="white"/>
</svg>
