<svg width="20" height="20" viewBox="0 0 20 20" fill="none" xmlns="http://www.w3.org/2000/svg">
<path d="M19.3734 14.2531C19.3481 6.89062 13.0941 0.649992 5.71625 0.626555L5.26125 0.624992L5.15187 1.06687L0.855625 18.4419L0.625 19.375L1.55781 19.1425L18.9344 14.8172L19.375 14.7072L19.3734 14.2531ZM10.6909 16.2725C10.4259 15.5628 9.82906 14.9656 8.93187 15.1931C8.19093 15.3806 7.69156 16.2434 7.89062 16.9694L1.41812 18.5806L5.195 3.30499C11.0731 4.19687 15.7987 8.92124 16.6925 14.7784L10.6909 16.2725Z" fill="black"/>
<path d="M4.66375 12.6881C4.89996 12.689 5.13401 12.643 5.35236 12.5529C5.57072 12.4628 5.76906 12.3303 5.93594 12.1631C6.10304 11.9967 6.23554 11.7988 6.32581 11.5809C6.41607 11.3629 6.46232 11.1293 6.46187 10.8934C6.4623 10.6577 6.41604 10.4242 6.32577 10.2065C6.2355 9.98872 6.10301 9.79099 5.93594 9.62469C5.80125 9.49063 5.56469 9.49 5.43062 9.62469C5.36393 9.69163 5.32651 9.78229 5.32657 9.87679C5.32663 9.97128 5.36416 10.0619 5.43094 10.1288C5.635 10.3322 5.74781 10.6047 5.74781 10.8938C5.74781 11.1828 5.63594 11.455 5.43156 11.6584C5.02156 12.0666 4.30594 12.0666 3.8975 11.6591C3.8297 11.5937 3.73918 11.5572 3.645 11.5572C3.55081 11.5572 3.46029 11.5937 3.3925 11.6591C3.35942 11.6921 3.33318 11.7314 3.31529 11.7746C3.2974 11.8178 3.28821 11.8641 3.28824 11.9109C3.28827 11.9576 3.29752 12.0039 3.31546 12.0471C3.33341 12.0903 3.35969 12.1295 3.39281 12.1625C3.55939 12.3298 3.75749 12.4624 3.97564 12.5526C4.1938 12.6428 4.42767 12.6889 4.66375 12.6881" fill="black"/>
<path d="M9.85031 7.86934C9.79773 8.09122 9.79634 8.32216 9.84624 8.54466C9.91001 8.82707 10.0519 9.08587 10.2557 9.29153C10.4594 9.49719 10.7169 9.64143 10.9987 9.70778C11.0823 9.7269 11.17 9.7122 11.2427 9.66688C11.3154 9.62156 11.3672 9.54931 11.3869 9.46591C11.4035 9.3827 11.3877 9.29628 11.3426 9.22435C11.2976 9.15243 11.2268 9.10044 11.1447 9.07903C10.685 8.97247 10.3712 8.47872 10.48 8.01497C10.5336 7.78573 10.676 7.58715 10.8759 7.46287C11.0759 7.33858 11.317 7.29876 11.5462 7.35216C11.6303 7.37153 11.7175 7.35747 11.7903 7.31153C11.8634 7.26591 11.915 7.19434 11.9337 7.10997C11.9447 7.06309 11.9453 7.01466 11.935 6.96747C11.9215 6.90818 11.8916 6.85387 11.8488 6.81068C11.806 6.76749 11.752 6.73715 11.6928 6.72309C11.4964 6.67689 11.2928 6.6702 11.0939 6.7034C10.8949 6.73661 10.7045 6.80906 10.5337 6.91653C10.3623 7.02202 10.2135 7.16061 10.0962 7.3242C9.97885 7.48779 9.89526 7.67311 9.85031 7.86934" fill="black"/>
<path d="M12.7009 13.3622C12.4921 13.3056 12.2733 13.2967 12.0606 13.3363C11.7912 13.3864 11.5414 13.5113 11.3396 13.6966C11.1378 13.8819 10.9922 14.1203 10.9194 14.3844C10.909 14.4232 10.9064 14.4636 10.9117 14.5033C10.9169 14.5431 10.93 14.5814 10.9501 14.6161C10.9702 14.6508 10.9969 14.6812 11.0287 14.7056C11.0605 14.73 11.0969 14.7478 11.1356 14.7582C11.2138 14.7772 11.2963 14.7654 11.3661 14.7253C11.4358 14.6853 11.4876 14.62 11.5106 14.5429C11.6272 14.1129 12.1056 13.8341 12.5406 13.9522C12.6473 13.9806 12.7474 14.0299 12.8349 14.0972C12.9225 14.1645 12.9958 14.2486 13.0506 14.3444C13.1622 14.5388 13.1922 14.7647 13.1337 14.9807C13.1201 15.0306 13.1195 15.0831 13.1318 15.1334C13.1441 15.1836 13.169 15.2299 13.2041 15.2678C13.2393 15.3058 13.2835 15.3341 13.3326 15.3503C13.3818 15.3664 13.4342 15.3698 13.485 15.3601C13.5417 15.3495 13.5944 15.3232 13.6369 15.2842C13.6795 15.2452 13.7102 15.1951 13.7256 15.1394C13.7756 14.9557 13.7887 14.7638 13.764 14.5749C13.7394 14.3861 13.6776 14.204 13.5822 14.0391C13.4871 13.8738 13.3604 13.7289 13.2091 13.6127C13.0579 13.4966 12.8852 13.4114 12.7009 13.3622" fill="black"/>
<path d="M11.5156 11.1087C11.1103 9.92245 9.80905 9.28338 8.60561 9.6812C7.4028 10.0796 6.75467 11.3649 7.15874 12.5499C7.56311 13.7381 8.86499 14.3759 10.0694 13.9774C11.2703 13.5799 11.9184 12.2946 11.5156 11.1087" fill="black"/>
<path d="M12.5 12.1957C12.7428 12.9079 13.5253 13.292 14.25 13.0526C14.9719 12.8126 15.3603 12.0413 15.1191 11.3285C14.8756 10.6163 14.0925 10.2323 13.3709 10.4704C12.6478 10.7104 12.2584 11.482 12.5 12.1957" fill="black"/>
<path d="M5.60469 7.31116C5.93656 8.2821 7.00156 8.80429 7.98594 8.47773C8.96812 8.1521 9.49875 7.10054 9.16906 6.13085C8.83687 5.16179 7.77281 4.6396 6.78844 4.96492C5.80656 5.28992 5.27594 6.34148 5.60469 7.31116Z" fill="black"/>
<path d="M6.44031 14.2444C6.09781 13.2456 5.00094 12.7072 3.98781 13.0406C2.97719 13.3772 2.43125 14.4587 2.77031 15.4569C3.11 16.4587 4.20594 16.9953 5.22187 16.6597C6.23312 16.3237 6.77875 15.2422 6.44031 14.2444" fill="black"/>
</svg>
