<svg width="21" height="21" viewBox="0 0 21 21" fill="none" xmlns="http://www.w3.org/2000/svg">
<path d="M18.2258 16.9186C19.2581 15.6767 19.976 14.2044 20.3189 12.6263C20.6617 11.0483 20.6195 9.41086 20.1957 7.85258C19.7719 6.2943 18.9791 4.86101 17.8842 3.67396C16.7893 2.4869 15.4247 1.58101 13.9056 1.03291C12.3866 0.484818 10.7579 0.310639 9.15735 0.525114C7.55678 0.739589 6.0314 1.33641 4.71027 2.26508C3.38913 3.19376 2.3111 4.42697 1.56737 5.86039C0.82364 7.29381 0.436089 8.88528 0.437504 10.5002C0.438047 12.8477 1.26532 15.1201 2.77416 16.9186L2.75979 16.9308C2.8101 16.9912 2.8676 17.0429 2.91935 17.1026C2.98404 17.1766 3.05375 17.2463 3.1206 17.3182C3.32185 17.5367 3.52885 17.7466 3.74591 17.9435C3.81204 18.0039 3.88032 18.06 3.94716 18.1175C4.17716 18.3158 4.41363 18.5042 4.65872 18.6795C4.69035 18.7011 4.7191 18.7291 4.75072 18.7514V18.7428C6.43411 19.9274 8.4423 20.5632 10.5007 20.5632C12.5591 20.5632 14.5673 19.9274 16.2507 18.7428V18.7514C16.2823 18.7291 16.3104 18.7011 16.3427 18.6795C16.5871 18.5034 16.8243 18.3158 17.0543 18.1175C17.1211 18.06 17.1894 18.0032 17.2555 17.9435C17.4726 17.7459 17.6796 17.5367 17.8808 17.3182C17.9477 17.2463 18.0167 17.1766 18.0821 17.1026C18.1331 17.0429 18.1913 16.9912 18.2417 16.9301L18.2258 16.9186ZM10.5 4.75016C11.1397 4.75016 11.765 4.93985 12.2969 5.29525C12.8288 5.65064 13.2434 6.15578 13.4882 6.74679C13.733 7.33779 13.797 7.98812 13.6722 8.61553C13.5474 9.24293 13.2394 9.81924 12.7871 10.2716C12.3347 10.7239 11.7584 11.032 11.131 11.1568C10.5036 11.2816 9.85327 11.2175 9.26226 10.9727C8.67126 10.7279 8.16612 10.3133 7.81072 9.78145C7.45532 9.24956 7.26563 8.62423 7.26563 7.98453C7.26563 7.12672 7.60639 6.30405 8.21296 5.69748C8.81952 5.09092 9.64219 4.75016 10.5 4.75016V4.75016ZM4.75503 16.9186C4.7675 15.9749 5.15103 15.074 5.82264 14.4108C6.49424 13.7477 7.39993 13.3756 8.34375 13.3752H12.6563C13.6001 13.3756 14.5058 13.7477 15.1774 14.4108C15.849 15.074 16.2325 15.9749 16.245 16.9186C14.6686 18.3391 12.6219 19.1252 10.5 19.1252C8.37807 19.1252 6.33137 18.3391 4.75503 16.9186V16.9186Z" fill="white"/>
</svg>
